<?xml version="1.0" standalone="no"?>
<!DOCTYPE svg PUBLIC "-//W3C//DTD SVG 20010904//EN"
 "http://www.w3.org/TR/2001/REC-SVG-20010904/DTD/svg10.dtd">
<svg version="1.0" xmlns="http://www.w3.org/2000/svg"
 width="100.000000pt" height="100.000000pt" viewBox="0 0 100.000000 100.000000"
 preserveAspectRatio="xMidYMid meet">

<g transform="translate(0.000000,100.000000) scale(0.100000,-0.100000)"
fill="#000000" stroke="none">
<path d="M427 903 c-3 -5 25 -8 62 -9 43 0 57 2 41 7 -34 10 -98 11 -103 2z"/>
<path d="M407 838 c5 -10 112 -9 135 0 10 4 -18 7 -61 7 -44 0 -77 -3 -74 -7z"/>
<path d="M369 817 c12 -15 11 -20 -3 -36 -10 -11 -17 -28 -16 -38 4 -33 0 -42
-15 -37 -8 4 -15 1 -15 -4 0 -6 8 -9 18 -7 9 3 35 9 57 14 41 11 160 -3 170
-18 2 -5 -21 -4 -51 2 -30 5 -75 6 -99 3 -50 -8 -92 -36 -81 -55 6 -8 12 -9
20 -2 9 8 13 7 13 -4 0 -30 -36 -16 -46 18 -5 17 -10 24 -10 14 -1 -10 8 -36
20 -58 19 -39 19 -42 3 -60 -9 -10 -14 -19 -11 -19 4 0 -3 -19 -16 -42 -56
-108 -72 -259 -36 -338 11 -25 21 -59 22 -77 1 -25 6 -32 26 -36 33 -7 45 4
60 52 6 22 19 42 29 44 12 3 11 5 -5 6 -13 0 -23 5 -23 10 0 5 -16 12 -35 15
-25 5 -39 15 -50 36 -30 59 -9 190 41 250 30 35 49 38 57 9 5 -19 11 -21 42
-16 64 10 82 -4 90 -68 10 -79 -8 -164 -40 -193 -15 -12 -20 -22 -13 -23 7 0
5 -4 -4 -7 -17 -7 -17 -8 1 -19 16 -10 25 -8 55 15 19 15 38 35 42 45 3 10 8
16 10 14 3 -3 -4 -33 -15 -68 -20 -66 -27 -134 -10 -108 8 12 11 11 19 -1 9
-13 11 -13 21 0 8 11 12 12 16 3 7 -18 23 -16 23 3 0 8 -4 13 -9 10 -7 -5 -8
19 -2 68 1 5 4 7 7 3 8 -8 33 16 27 26 -2 4 0 7 5 7 5 0 9 18 10 41 1 22 -2
38 -7 35 -13 -9 -29 36 -42 121 -15 101 -8 139 38 193 21 24 38 48 39 54 1 6
3 18 5 26 2 8 -2 14 -8 13 -7 -2 -13 2 -13 8 0 5 -4 8 -8 5 -10 -6 -77 122
-68 131 3 3 6 0 6 -8 0 -11 2 -11 10 1 13 20 13 33 -1 25 -6 -4 -9 0 -7 11 2
16 -3 19 -32 16 -91 -6 -177 -5 -200 3 -23 8 -24 7 -11 -8z m191 -56 c0 -26
-24 -43 -52 -38 -20 4 -19 4 5 6 16 0 26 5 22 11 -4 6 -11 7 -17 4 -7 -5 -8
-2 -3 6 6 10 3 12 -13 8 -26 -7 -30 10 -5 19 10 4 23 -2 36 -18 l20 -24 -5 27
c-3 15 -1 25 3 22 5 -3 9 -13 9 -23z m-156 11 c2 -4 -7 -12 -20 -19 -19 -9
-24 -8 -24 1 0 23 32 37 44 18z m16 -37 c-7 -8 -22 -14 -34 -14 -20 2 -20 2 2
6 13 3 19 9 16 15 -4 7 -2 8 4 4 7 -4 12 0 13 11 0 11 3 13 6 5 3 -7 -1 -19
-7 -27z m209 -112 c-7 -13 -22 -29 -33 -35 -16 -9 -15 -4 7 21 15 18 27 40 28
49 0 12 2 13 6 4 3 -8 -1 -25 -8 -39z m-152 -50 c30 3 62 11 71 18 15 12 16
11 2 -4 -16 -18 -140 -40 -140 -25 0 4 -6 8 -14 8 -7 0 -19 7 -26 15 -10 12
-6 12 20 -2 23 -11 47 -14 87 -10z m58 -23 c-11 -5 -36 -8 -55 -8 l-35 1 40 7
c57 10 74 10 50 0z m25 -55 c-14 -8 -32 -14 -40 -14 -8 0 -1 6 15 14 40 18 57
18 25 0z m-130 -15 c0 -4 -7 -10 -15 -14 -10 -4 -15 1 -15 14 0 13 5 18 15 14
8 -4 15 -10 15 -14z m70 -5 c0 -9 -6 -12 -15 -9 -8 4 -15 10 -15 15 0 5 7 9
15 9 8 0 15 -7 15 -15z"/>
<path d="M258 487 c-14 -11 -17 -29 -9 -54 3 -9 41 40 41 52 0 18 -9 19 -32 2z"/>
<path d="M246 33 c-6 -14 -5 -15 5 -6 7 7 10 15 7 18 -3 3 -9 -2 -12 -12z"/>
</g>
</svg>
