<?xml version="1.0" encoding="UTF-8"?>
<!DOCTYPE svg PUBLIC "-//W3C//DTD SVG 1.1//EN" "http://www.w3.org/Graphics/SVG/1.1/DTD/svg11.dtd">
<svg xmlns="http://www.w3.org/2000/svg" version="1.1" width="100px" height="100px" style="shape-rendering:geometricPrecision; text-rendering:geometricPrecision; image-rendering:optimizeQuality; fill-rule:evenodd; clip-rule:evenodd" xmlns:xlink="http://www.w3.org/1999/xlink">
<g><path style="opacity:1" fill="#57d9dc" d="M 46.5,-0.5 C 51.8333,-0.5 57.1667,-0.5 62.5,-0.5C 63.0906,0.151487 63.7573,0.818153 64.5,1.5C 63.9003,4.34897 62.5669,6.6823 60.5,8.5C 58.5853,8.78448 56.9187,8.45115 55.5,7.5C 53.7078,6.69088 51.7078,6.19088 49.5,6C 48.5941,3.77875 47.5941,1.61208 46.5,-0.5 Z"/></g>
<g><path style="opacity:0.815" fill="#c2ccd8" d="M 38.5,-0.5 C 41.1667,-0.5 43.8333,-0.5 46.5,-0.5C 47.5941,1.61208 48.5941,3.77875 49.5,6C 51.7078,6.19088 53.7078,6.69088 55.5,7.5C 53.8333,7.5 52.1667,7.5 50.5,7.5C 49.8333,7.5 49.1667,7.5 48.5,7.5C 45.3819,8.23195 44.0485,9.89862 44.5,12.5C 42.2043,12.8041 41.871,13.8041 43.5,15.5C 42.1779,15.33 41.0113,15.6634 40,16.5C 39.1529,18.8543 38.3195,21.1877 37.5,23.5C 33.5473,27.5456 32.7139,32.2123 35,37.5C 35.7083,38.3805 36.5416,39.0472 37.5,39.5C 37.8333,40.1667 38.1667,40.8333 38.5,41.5C 29.8585,45.9854 20.8585,49.6521 11.5,52.5C 12.0253,53.1924 12.6919,53.6924 13.5,54C 12.1279,55.2419 11.1279,56.7419 10.5,58.5C 10.8869,59.7199 11.7202,60.3865 13,60.5C 18.043,56.8952 23.543,54.2285 29.5,52.5C 30.625,53.3478 30.625,54.3478 29.5,55.5C 28.5041,55.5858 27.6708,55.2524 27,54.5C 22.3233,57.1829 17.6566,59.8496 13,62.5C 7.31058,59.2099 6.14391,54.7099 9.5,49C 17.7516,47.8796 25.4183,45.0462 32.5,40.5C 29.3494,32.1186 30.0161,24.1186 34.5,16.5C 34.3201,15.4461 33.9867,14.4461 33.5,13.5C 35.4403,10.3886 38.1069,8.22198 41.5,7C 40.3578,4.55012 39.3578,2.05012 38.5,-0.5 Z"/></g>
<g><path style="opacity:1" fill="#fbfcfb" d="M 48.5,7.5 C 49.1667,7.5 49.8333,7.5 50.5,7.5C 50.5,9.5 50.5,11.5 50.5,13.5C 49.8333,13.5 49.1667,13.5 48.5,13.5C 48.5,11.5 48.5,9.5 48.5,7.5 Z"/></g>
<g><path style="opacity:1" fill="#fcd828" d="M 50.5,7.5 C 52.1667,7.5 53.8333,7.5 55.5,7.5C 56.9187,8.45115 58.5853,8.78448 60.5,8.5C 61.0283,9.72065 61.695,10.8873 62.5,12C 60.6183,12.1981 58.9516,12.6981 57.5,13.5C 55.1667,13.5 52.8333,13.5 50.5,13.5C 50.5,11.5 50.5,9.5 50.5,7.5 Z"/></g>
<g><path style="opacity:1" fill="#fcdb49" d="M 48.5,7.5 C 48.5,9.5 48.5,11.5 48.5,13.5C 47.2921,12.7659 45.9587,12.4326 44.5,12.5C 44.0485,9.89862 45.3819,8.23195 48.5,7.5 Z"/></g>
<g><path style="opacity:1" fill="#1d6fd8" d="M 44.5,12.5 C 45.9587,12.4326 47.2921,12.7659 48.5,13.5C 49.1667,13.5 49.8333,13.5 50.5,13.5C 52.8333,13.5 55.1667,13.5 57.5,13.5C 53.6888,14.6453 49.6888,14.8119 45.5,14C 44.944,13.6174 44.6107,13.1174 44.5,12.5 Z"/></g>
<g><path style="opacity:1" fill="#22d8d8" d="M 44.5,12.5 C 44.6107,13.1174 44.944,13.6174 45.5,14C 49.6888,14.8119 53.6888,14.6453 57.5,13.5C 59.1992,13.3398 60.8659,13.5065 62.5,14C 61.5842,14.2784 60.9175,14.7784 60.5,15.5C 55.5365,16.254 50.5365,16.5874 45.5,16.5C 45.1583,15.6618 44.4916,15.3284 43.5,15.5C 41.871,13.8041 42.2043,12.8041 44.5,12.5 Z"/></g>
<g><path style="opacity:1" fill="#bf84a3" d="M 43.5,15.5 C 44.4916,15.3284 45.1583,15.6618 45.5,16.5C 42.2332,17.0311 41.8999,18.0311 44.5,19.5C 44.6107,20.1174 44.944,20.6174 45.5,21C 43.5483,21.3661 41.8816,22.1995 40.5,23.5C 39.5,23.5 38.5,23.5 37.5,23.5C 38.3195,21.1877 39.1529,18.8543 40,16.5C 41.0113,15.6634 42.1779,15.33 43.5,15.5 Z"/></g>
<g><path style="opacity:1" fill="#803c62" d="M 60.5,15.5 C 60.8333,15.5 61.1667,15.5 61.5,15.5C 61.0629,17.0744 60.0629,18.2411 58.5,19C 59.8009,20.6155 59.8009,22.1155 58.5,23.5C 58.5858,22.5041 58.2524,21.6708 57.5,21C 55.8659,20.5065 54.1992,20.3398 52.5,20.5C 52.5,20.1667 52.5,19.8333 52.5,19.5C 53.6085,18.71 54.9419,18.21 56.5,18C 52.6437,17.8227 48.977,17.3227 45.5,16.5C 50.5365,16.5874 55.5365,16.254 60.5,15.5 Z"/></g>
<g><path style="opacity:1" fill="#3a3a3a" d="M 44.5,19.5 C 46.3442,20.2039 46.8442,21.5372 46,23.5C 44.0565,24.807 42.2232,24.807 40.5,23.5C 41.8816,22.1995 43.5483,21.3661 45.5,21C 44.944,20.6174 44.6107,20.1174 44.5,19.5 Z"/></g>
<g><path style="opacity:1" fill="#cd92ad" d="M 37.5,23.5 C 37.33,24.8221 37.6634,25.9887 38.5,27C 36.6041,28.8083 36.1041,30.975 37,33.5C 37.6036,31.3143 38.7703,31.1476 40.5,33C 39.1772,33.8159 38.5106,34.9826 38.5,36.5C 37.596,37.209 37.2627,38.209 37.5,39.5C 36.5416,39.0472 35.7083,38.3805 35,37.5C 32.7139,32.2123 33.5473,27.5456 37.5,23.5 Z"/></g>
<g><path style="opacity:1" fill="#d2599a" d="M 61.5,15.5 C 63.1439,15.2865 64.6439,15.6198 66,16.5C 67.1727,20.3372 69.1727,23.6706 72,26.5C 72.9581,28.1992 73.4581,30.0326 73.5,32C 73.0393,34.1993 72.8727,36.3659 73,38.5C 73.66,36.6763 74.8267,35.343 76.5,34.5C 75.8067,38.7114 73.64,42.0447 70,44.5C 68.5611,46.2746 67.5611,48.2746 67,50.5C 66.7336,56.8456 67.067,63.1789 68,69.5C 68.3826,70.056 68.8826,70.3893 69.5,70.5C 70.3195,73.3054 70.8195,76.3054 71,79.5C 71.3333,78.5 71.6667,77.5 72,76.5C 73.6667,77.8333 75.3333,77.8333 77,76.5C 78.3297,77.5822 79.8297,78.2488 81.5,78.5C 82.5361,80.3911 82.5361,82.2245 81.5,84C 77.6749,84.8873 73.8416,85.7207 70,86.5C 69.0546,86.0946 68.3879,85.428 68,84.5C 67.7218,88.1261 65.8884,90.1261 62.5,90.5C 60.5165,90.3832 58.8498,91.0499 57.5,92.5C 56.4507,89.8549 55.1173,87.3549 53.5,85C 54.4295,83.9231 55.0962,82.7564 55.5,81.5C 56.5116,80.1283 57.5116,78.795 58.5,77.5C 60.335,76.8777 61.5017,75.5444 62,73.5C 63.0114,66.8379 62.5114,60.3379 60.5,54C 60.6667,53.5 60.8333,53 61,52.5C 62,54.1667 63,55.8333 64,57.5C 64.2345,53.6858 65.0678,50.0192 66.5,46.5C 65.675,45.6143 64.675,45.281 63.5,45.5C 64.8083,44.7677 66.1416,43.9344 67.5,43C 66.5,42.8333 65.5,42.6667 64.5,42.5C 56.9846,45.0858 49.4846,45.0858 42,42.5C 40.9701,42.8361 40.4701,43.5028 40.5,44.5C 40.5,45.1667 40.5,45.8333 40.5,46.5C 38.5588,46.8693 36.7255,47.536 35,48.5C 33.4068,52.0242 31.5735,55.3576 29.5,58.5C 29.5,57.8333 29.5,57.1667 29.5,56.5C 29.5,56.1667 29.5,55.8333 29.5,55.5C 30.625,54.3478 30.625,53.3478 29.5,52.5C 29.1961,51.8501 28.8627,51.1835 28.5,50.5C 30.234,48.7658 32.234,47.4324 34.5,46.5C 35.6933,44.4733 37.36,42.9733 39.5,42C 39.2716,41.6012 38.9382,41.4346 38.5,41.5C 38.1667,40.8333 37.8333,40.1667 37.5,39.5C 37.2627,38.209 37.596,37.209 38.5,36.5C 38.5106,34.9826 39.1772,33.8159 40.5,33C 38.7703,31.1476 37.6036,31.3143 37,33.5C 36.1041,30.975 36.6041,28.8083 38.5,27C 37.6634,25.9887 37.33,24.8221 37.5,23.5C 38.5,23.5 39.5,23.5 40.5,23.5C 42.2232,24.807 44.0565,24.807 46,23.5C 46.8442,21.5372 46.3442,20.2039 44.5,19.5C 41.8999,18.0311 42.2332,17.0311 45.5,16.5C 48.977,17.3227 52.6437,17.8227 56.5,18C 54.9419,18.21 53.6085,18.71 52.5,19.5C 51.1991,20.8845 51.1991,22.3845 52.5,24C 54.7116,24.7891 56.7116,24.6225 58.5,23.5C 59.8009,22.1155 59.8009,20.6155 58.5,19C 60.0629,18.2411 61.0629,17.0744 61.5,15.5 Z"/></g>
<g><path style="opacity:1" fill="#373737" d="M 38.5,36.5 C 45.1303,37.5464 51.797,37.7131 58.5,37C 59.9642,35.6233 60.9642,35.6233 61.5,37C 59.6505,41.0109 56.4838,42.8442 52,42.5C 50.5,42.3333 49,42.1667 47.5,42C 49.8333,41.6667 52.1667,41.3333 54.5,41C 50.4522,40.5661 46.4522,40.5661 42.5,41C 40.9586,39.6288 39.6253,38.1288 38.5,36.5 Z"/></g>
<g><path style="opacity:1" fill="#ededed" d="M 52.5,20.5 C 54.1992,20.3398 55.8659,20.5065 57.5,21C 58.2524,21.6708 58.5858,22.5041 58.5,23.5C 56.9098,21.576 55.0765,21.2427 53,22.5C 52.5357,21.9056 52.369,21.2389 52.5,20.5 Z"/></g>
<g><path style="opacity:1" fill="#2a2a2a" d="M 52.5,19.5 C 52.5,19.8333 52.5,20.1667 52.5,20.5C 52.369,21.2389 52.5357,21.9056 53,22.5C 55.0765,21.2427 56.9098,21.576 58.5,23.5C 56.7116,24.6225 54.7116,24.7891 52.5,24C 51.1991,22.3845 51.1991,20.8845 52.5,19.5 Z"/></g>
<g><path style="opacity:1" fill="#b0278d" d="M 63.5,45.5 C 57.6719,47.2092 51.6719,47.8759 45.5,47.5C 44.0351,46.2632 42.3684,45.2632 40.5,44.5C 40.4701,43.5028 40.9701,42.8361 42,42.5C 49.4846,45.0858 56.9846,45.0858 64.5,42.5C 65.5,42.6667 66.5,42.8333 67.5,43C 66.1416,43.9344 64.8083,44.7677 63.5,45.5 Z"/></g>
<g><path style="opacity:1" fill="#272b2a" d="M 40.5,44.5 C 42.3684,45.2632 44.0351,46.2632 45.5,47.5C 44.4017,48.6009 44.235,49.9343 45,51.5C 45.6708,50.7476 46.5041,50.4142 47.5,50.5C 47.0269,51.9063 46.0269,52.573 44.5,52.5C 43.596,51.791 43.2627,50.791 43.5,49.5C 42.8333,48.1667 41.8333,47.1667 40.5,46.5C 40.5,45.8333 40.5,45.1667 40.5,44.5 Z"/></g>
<g><path style="opacity:1" fill="#66dfdf" d="M 45.5,47.5 C 46.5511,48.2223 47.2178,49.2223 47.5,50.5C 46.5041,50.4142 45.6708,50.7476 45,51.5C 44.235,49.9343 44.4017,48.6009 45.5,47.5 Z"/></g>
<g><path style="opacity:1" fill="#354f4e" d="M 63.5,45.5 C 62.08,47.7089 60.4133,49.7089 58.5,51.5C 56.8615,50.0864 55.5282,50.4197 54.5,52.5C 52.3821,51.0541 50.0488,50.3874 47.5,50.5C 47.2178,49.2223 46.5511,48.2223 45.5,47.5C 51.6719,47.8759 57.6719,47.2092 63.5,45.5 Z"/></g>
<g><path style="opacity:1" fill="#28b703" d="M 43.5,49.5 C 43.2627,50.791 43.596,51.791 44.5,52.5C 46.5097,53.6932 48.6763,53.6932 51,52.5C 52.7633,52.9755 54.43,53.6422 56,54.5C 58.1234,62.2688 57.79,69.9355 55,77.5C 48.3397,82.3851 41.673,82.3851 35,77.5C 32.638,68.7916 33.638,60.4583 38,52.5C 39.2635,50.393 41.0968,49.393 43.5,49.5 Z"/></g>
<g><path style="opacity:1" fill="#2e9716" d="M 40.5,46.5 C 41.8333,47.1667 42.8333,48.1667 43.5,49.5C 41.0968,49.393 39.2635,50.393 38,52.5C 33.638,60.4583 32.638,68.7916 35,77.5C 41.673,82.3851 48.3397,82.3851 55,77.5C 57.79,69.9355 58.1234,62.2688 56,54.5C 54.43,53.6422 52.7633,52.9755 51,52.5C 48.6763,53.6932 46.5097,53.6932 44.5,52.5C 46.0269,52.573 47.0269,51.9063 47.5,50.5C 50.0488,50.3874 52.3821,51.0541 54.5,52.5C 55.5282,50.4197 56.8615,50.0864 58.5,51.5C 61.0168,60.1929 61.0168,68.8596 58.5,77.5C 57.5116,78.795 56.5116,80.1283 55.5,81.5C 53.2143,81.595 51.2143,82.2616 49.5,83.5C 47.1667,83.5 44.8333,83.5 42.5,83.5C 38.3676,82.7934 35.0342,80.7934 32.5,77.5C 30.3214,65.8799 32.9881,55.5466 40.5,46.5 Z"/></g>
<g><path style="opacity:1" fill="#98357b" d="M 63.5,45.5 C 64.675,45.281 65.675,45.6143 66.5,46.5C 65.0678,50.0192 64.2345,53.6858 64,57.5C 63,55.8333 62,54.1667 61,52.5C 60.8333,53 60.6667,53.5 60.5,54C 62.5114,60.3379 63.0114,66.8379 62,73.5C 61.5017,75.5444 60.335,76.8777 58.5,77.5C 61.0168,68.8596 61.0168,60.1929 58.5,51.5C 60.4133,49.7089 62.08,47.7089 63.5,45.5 Z"/></g>
<g><path style="opacity:1" fill="#e496ba" d="M 38.5,41.5 C 38.9382,41.4346 39.2716,41.6012 39.5,42C 37.36,42.9733 35.6933,44.4733 34.5,46.5C 32.234,47.4324 30.234,48.7658 28.5,50.5C 28.8627,51.1835 29.1961,51.8501 29.5,52.5C 23.543,54.2285 18.043,56.8952 13,60.5C 11.7202,60.3865 10.8869,59.7199 10.5,58.5C 11.1279,56.7419 12.1279,55.2419 13.5,54C 12.6919,53.6924 12.0253,53.1924 11.5,52.5C 20.8585,49.6521 29.8585,45.9854 38.5,41.5 Z"/></g>
<g><path style="opacity:1" fill="#d292b7" d="M 69.5,70.5 C 68.8826,70.3893 68.3826,70.056 68,69.5C 67.067,63.1789 66.7336,56.8456 67,50.5C 67.5611,48.2746 68.5611,46.2746 70,44.5C 73.64,42.0447 75.8067,38.7114 76.5,34.5C 77.5955,32.642 78.9288,30.9754 80.5,29.5C 81.1667,30.1667 81.8333,30.8333 82.5,31.5C 85.1773,29.8351 87.1773,30.3351 88.5,33C 85.9706,35.4084 82.9706,37.075 79.5,38C 76,41.5 72.5,45 69,48.5C 68.1313,50.5806 67.6313,52.7473 67.5,55C 68.6234,60.1146 69.2901,65.2813 69.5,70.5 Z"/></g>
<g><path style="opacity:0.765" fill="#babec8" d="M 62.5,-0.5 C 63.5,-0.5 64.5,-0.5 65.5,-0.5C 67.0031,2.99425 66.6698,6.32759 64.5,9.5C 66.6317,10.5984 68.7984,11.5984 71,12.5C 71.7772,15.4294 71.6105,18.2628 70.5,21C 73.0057,24.1793 74.8391,27.6793 76,31.5C 80.2219,26.2069 85.2219,25.5403 91,29.5C 92.1762,33.2601 91.0096,36.0934 87.5,38C 83.462,38.8993 79.7954,40.566 76.5,43C 74.208,46.4162 72.0414,49.9162 70,53.5C 69.6784,59.5952 70.345,65.5952 72,71.5C 75.1073,73.9646 78.274,76.2979 81.5,78.5C 79.8297,78.2488 78.3297,77.5822 77,76.5C 75.3333,77.8333 73.6667,77.8333 72,76.5C 71.6667,77.5 71.3333,78.5 71,79.5C 70.8195,76.3054 70.3195,73.3054 69.5,70.5C 69.2901,65.2813 68.6234,60.1146 67.5,55C 67.6313,52.7473 68.1313,50.5806 69,48.5C 72.5,45 76,41.5 79.5,38C 82.9706,37.075 85.9706,35.4084 88.5,33C 87.1773,30.3351 85.1773,29.8351 82.5,31.5C 81.8333,30.8333 81.1667,30.1667 80.5,29.5C 78.9288,30.9754 77.5955,32.642 76.5,34.5C 74.8267,35.343 73.66,36.6763 73,38.5C 72.8727,36.3659 73.0393,34.1993 73.5,32C 73.4581,30.0326 72.9581,28.1992 72,26.5C 69.1727,23.6706 67.1727,20.3372 66,16.5C 64.6439,15.6198 63.1439,15.2865 61.5,15.5C 61.1667,15.5 60.8333,15.5 60.5,15.5C 60.9175,14.7784 61.5842,14.2784 62.5,14C 60.8659,13.5065 59.1992,13.3398 57.5,13.5C 58.9516,12.6981 60.6183,12.1981 62.5,12C 61.695,10.8873 61.0283,9.72065 60.5,8.5C 62.5669,6.6823 63.9003,4.34897 64.5,1.5C 63.7573,0.818153 63.0906,0.151487 62.5,-0.5 Z"/></g>
<g><path style="opacity:1" fill="#9d5279" d="M 40.5,46.5 C 32.9881,55.5466 30.3214,65.8799 32.5,77.5C 31.71,78.6085 31.21,79.9419 31,81.5C 30.8272,75.6518 30.3272,69.9851 29.5,64.5C 29.5,62.5 29.5,60.5 29.5,58.5C 31.5735,55.3576 33.4068,52.0242 35,48.5C 36.7255,47.536 38.5588,46.8693 40.5,46.5 Z"/></g>
<g><path style="opacity:1" fill="#f6a5cd" d="M 29.5,56.5 C 29.5,57.1667 29.5,57.8333 29.5,58.5C 29.5,60.5 29.5,62.5 29.5,64.5C 26.4616,71.6901 27.1283,78.6901 31.5,85.5C 30.8728,86.4168 30.5394,87.4168 30.5,88.5C 26.9544,84.0277 25.2877,78.861 25.5,73C 25.6338,67.6375 26.6338,62.4708 28.5,57.5C 28.5,56.8333 28.8333,56.5 29.5,56.5 Z"/></g>
<g><path style="opacity:1" fill="#9b377f" d="M 32.5,77.5 C 35.0342,80.7934 38.3676,82.7934 42.5,83.5C 42.5,83.8333 42.5,84.1667 42.5,84.5C 41.6641,87.847 40.1641,90.847 38,93.5C 36.2378,88.0439 34.4044,82.7105 32.5,77.5 Z"/></g>
<g><path style="opacity:1" fill="#e06da8" d="M 29.5,64.5 C 30.3272,69.9851 30.8272,75.6518 31,81.5C 31.21,79.9419 31.71,78.6085 32.5,77.5C 34.4044,82.7105 36.2378,88.0439 38,93.5C 40.1641,90.847 41.6641,87.847 42.5,84.5C 44.4008,84.2465 45.0674,84.5798 44.5,85.5C 43.1062,88.5479 41.7729,91.7146 40.5,95C 37.5,95.6667 34.5,95.6667 31.5,95C 30.9341,94.0053 30.2674,93.172 29.5,92.5C 28.9907,91.6587 29.6573,91.1587 31.5,91C 30.7476,90.3292 30.4142,89.4959 30.5,88.5C 30.5394,87.4168 30.8728,86.4168 31.5,85.5C 27.1283,78.6901 26.4616,71.6901 29.5,64.5 Z"/></g>
<g><path style="opacity:1" fill="#ca83a5" d="M 55.5,81.5 C 55.0962,82.7564 54.4295,83.9231 53.5,85C 55.1173,87.3549 56.4507,89.8549 57.5,92.5C 58.8498,91.0499 60.5165,90.3832 62.5,90.5C 64.2922,91.3091 66.2922,91.8091 68.5,92C 62.2689,94.5316 62.9356,96.0316 70.5,96.5C 70.281,95.325 70.6143,94.325 71.5,93.5C 72.4287,94.6888 72.762,96.0222 72.5,97.5C 66.4632,97.8293 60.4632,97.4959 54.5,96.5C 53.8043,91.7391 52.1377,87.4058 49.5,83.5C 51.2143,82.2616 53.2143,81.595 55.5,81.5 Z"/></g>
<g><path style="opacity:1" fill="#d49aba" d="M 44.5,85.5 C 44.2756,89.1788 43.9422,92.8455 43.5,96.5C 43.5,96.8333 43.5,97.1667 43.5,97.5C 36.1365,97.8306 28.8032,97.4973 21.5,96.5C 24.5476,95.5372 27.2143,94.2039 29.5,92.5C 30.2674,93.172 30.9341,94.0053 31.5,95C 34.5,95.6667 37.5,95.6667 40.5,95C 41.7729,91.7146 43.1062,88.5479 44.5,85.5 Z"/></g>
<g><path style="opacity:1" fill="#c6c4c8" d="M 28.5,57.5 C 26.6338,62.4708 25.6338,67.6375 25.5,73C 25.2877,78.861 26.9544,84.0277 30.5,88.5C 30.4142,89.4959 30.7476,90.3292 31.5,91C 29.6573,91.1587 28.9907,91.6587 29.5,92.5C 27.2143,94.2039 24.5476,95.5372 21.5,96.5C 28.8032,97.4973 36.1365,97.8306 43.5,97.5C 43.5,98.1667 43.5,98.8333 43.5,99.5C 36.1667,99.5 28.8333,99.5 21.5,99.5C 20.791,98.596 19.791,98.2627 18.5,98.5C 18.0074,96.1944 17.6741,93.861 17.5,91.5C 20.9783,91.8158 24.3117,91.3158 27.5,90C 26.3783,87.8762 24.8783,86.0429 23,84.5C 22.2324,77.0447 22.8991,69.7114 25,62.5C 26.0298,60.6536 27.1964,58.9869 28.5,57.5 Z"/></g>
<g><path style="opacity:1" fill="#c1bfc7" d="M 81.5,78.5 C 83.9661,78.8987 85.9661,80.0653 87.5,82C 87.2409,83.2613 86.5742,84.2613 85.5,85C 80.6074,86.4821 75.6074,87.3154 70.5,87.5C 70.4208,88.9305 70.7542,90.2638 71.5,91.5C 73.5,92.8333 75.1667,94.5 76.5,96.5C 75.8075,97.5178 75.1408,98.5178 74.5,99.5C 67.1667,99.5 59.8333,99.5 52.5,99.5C 51.5564,94.8347 49.3898,90.8347 46,87.5C 45.5939,90.7422 44.7605,93.7422 43.5,96.5C 43.9422,92.8455 44.2756,89.1788 44.5,85.5C 45.0674,84.5798 44.4008,84.2465 42.5,84.5C 42.5,84.1667 42.5,83.8333 42.5,83.5C 44.8333,83.5 47.1667,83.5 49.5,83.5C 52.1377,87.4058 53.8043,91.7391 54.5,96.5C 60.4632,97.4959 66.4632,97.8293 72.5,97.5C 72.762,96.0222 72.4287,94.6888 71.5,93.5C 70.6143,94.325 70.281,95.325 70.5,96.5C 62.9356,96.0316 62.2689,94.5316 68.5,92C 66.2922,91.8091 64.2922,91.3091 62.5,90.5C 65.8884,90.1261 67.7218,88.1261 68,84.5C 68.3879,85.428 69.0546,86.0946 70,86.5C 73.8416,85.7207 77.6749,84.8873 81.5,84C 82.5361,82.2245 82.5361,80.3911 81.5,78.5 Z"/></g>
</svg>
